<svg width="289" height="65" viewBox="0 0 289 65" fill="none" xmlns="http://www.w3.org/2000/svg">
<path fill-rule="evenodd" clip-rule="evenodd" d="M20.2132 12.3731C20.2131 9.38464 20.7845 7.07482 21.7496 5.66424L31.707 10.7878C33.6887 10.7878 33.6887 10.7863 33.6887 10.7863V10.7847L33.6887 10.7809L33.6887 10.771L33.6884 10.7427C33.6882 10.72 33.6877 10.6898 33.6868 10.6525C33.6851 10.578 33.6818 10.475 33.6755 10.3473C33.6628 10.0925 33.638 9.73677 33.5891 9.31086C33.4923 8.46718 33.2967 7.30817 32.8934 6.09852C32.1096 3.74684 30.3254 0.661561 26.4385 0.106273C24.7509 -0.134817 23.1842 0.0316266 21.7927 0.632872C20.3995 1.2349 19.3034 2.22053 18.4785 3.4262C16.8674 5.78092 16.2497 9.01999 16.2498 12.3731L16.2498 31.2752C15.4453 30.9616 14.4816 30.5398 13.464 29.9946C12.9407 29.7143 12.4067 29.4033 11.8751 29.0599C12.7618 27.3643 12.3552 25.4288 11.4806 23.6905C10.5718 21.8842 9.07278 20.1056 7.52162 18.636C5.97051 17.1664 4.30979 15.9516 3.0301 15.2989C2.42268 14.989 1.77298 14.7373 1.22647 14.7516C0.931941 14.7593 0.537762 14.8502 0.260485 15.1971C-0.00894487 15.5343 -0.0249743 15.9366 0.0183461 16.2399C0.415152 19.0176 0.815071 21.5208 1.29302 23.6464C1.76876 25.7622 2.33367 27.561 3.08401 28.9009C3.83735 30.2461 4.84053 31.235 6.22295 31.5083C7.57736 31.776 9.07939 31.3108 10.7355 30.2757L10.7879 30.2429C11.4396 30.6752 12.0898 31.057 12.7153 31.3921C14.0536 32.109 15.3008 32.6239 16.2498 32.9693L16.2498 50.4205C16.2498 50.4205 16.2498 50.4219 18.2315 50.4219L16.2498 50.4205L16.2498 51.4126H5.54855C5.22021 51.4126 4.95403 51.6787 4.95403 52.0071C4.95403 52.3354 5.22021 52.6016 5.54855 52.6016H30.9144C31.2427 52.6016 31.5089 52.3354 31.5089 52.0071C31.5089 51.6787 31.2427 51.4126 30.9144 51.4126H20.2132L20.2132 50.4219L18.2315 50.4219C20.2132 50.4219 20.2132 50.4219 20.2132 50.4219L20.2132 39.5232C21.1635 39.1778 22.415 38.6617 23.7582 37.9421C24.3838 37.607 25.034 37.2252 25.6856 36.7929L25.738 36.8257C27.3941 37.8607 28.8961 38.326 30.2505 38.0583C31.6329 37.785 32.6361 36.7961 33.3895 35.4509C34.1398 34.111 34.7047 32.3122 35.1805 30.1964C35.6584 28.0708 36.0583 25.5676 36.4551 22.7899C36.4985 22.4866 36.4824 22.0843 36.213 21.7471C35.9357 21.4002 35.5415 21.3092 35.247 21.3015C34.7005 21.2873 34.0508 21.539 33.4434 21.8488C32.1637 22.5016 30.503 23.7164 28.9519 25.186C27.4007 26.6556 25.9017 28.4342 24.9929 30.2405C24.1183 31.9788 23.7117 33.9143 24.5984 35.6099C24.0668 35.9533 23.5329 36.2643 23.0096 36.5446C21.9874 37.0922 21.0198 37.5153 20.2132 37.8293L20.2132 12.3731ZM10.0644 24.403C10.799 25.8631 10.9859 27.1299 10.5602 28.1342C8.82709 26.8026 7.24045 25.0931 6.28354 22.94L5.9616 22.2157L4.51288 22.8595L4.83482 23.5839C5.88464 25.946 7.5761 27.8002 9.38831 29.2308C8.13664 29.9256 7.21681 30.0887 6.53038 29.953C5.78243 29.8051 5.10114 29.2582 4.46725 28.1263C3.83038 26.989 3.30534 25.3693 2.83977 23.2986C2.39916 21.3391 2.0224 19.0266 1.6461 16.4217C1.8149 16.4794 2.03534 16.5712 2.30976 16.7111C3.41564 17.2752 4.95371 18.3869 6.43124 19.7868C7.90872 21.1867 9.2682 22.8206 10.0644 24.403ZM29.9431 36.503C29.2567 36.6387 28.3369 36.4756 27.0852 35.7808C28.8974 34.3502 30.5889 32.496 31.6388 30.1339L31.9607 29.4095L30.512 28.7656L30.19 29.49C29.2331 31.6431 27.6464 33.3527 25.9133 34.6842C25.4875 33.68 25.6744 32.4131 26.4091 30.953C27.2053 29.3706 28.5648 27.7367 30.0422 26.3368C31.5198 24.9369 33.0578 23.8252 34.1637 23.2611C34.4381 23.1211 34.6586 23.0294 34.8274 22.9717C34.4511 25.5766 34.0743 27.8891 33.6337 29.8486C33.1681 31.9192 32.6431 33.539 32.0062 34.6762C31.3723 35.8082 30.691 36.3551 29.9431 36.503Z" fill="white"/>
<path d="M8.71928 54.5833C8.39094 54.5833 8.12477 54.8495 8.12477 55.1778C8.12477 55.5061 8.39094 55.7723 8.71928 55.7723H27.7437C28.072 55.7723 28.3382 55.5061 28.3382 55.1778C28.3382 54.8495 28.072 54.5833 27.7437 54.5833H8.71928Z" fill="white"/>
<path d="M11.2955 58.3485C11.2955 58.0202 11.5617 57.754 11.89 57.754H24.5729C24.9013 57.754 25.1674 58.0202 25.1674 58.3485C25.1674 58.6769 24.9013 58.943 24.5729 58.943H11.89C11.5617 58.943 11.2955 58.6769 11.2955 58.3485Z" fill="white"/>
<path fill-rule="evenodd" clip-rule="evenodd" d="M54.4658 31.8499V33.9299L47.1604 37.126C45.6385 37.8024 44.3533 38.4789 43.3048 39.1553C42.2564 39.7979 41.4108 40.4574 40.7682 41.1338C40.1256 41.8102 39.6521 42.5205 39.3477 43.2646C39.0772 44.0086 38.9419 44.7865 38.9419 45.5982C38.9419 47.4246 39.5507 48.8789 40.7682 49.9611C41.9858 51.0434 43.6599 51.5846 45.7907 51.5846C47.6847 51.5846 49.4095 51.1111 50.9653 50.1641C52.5211 49.1833 53.7386 47.8642 54.618 46.207H54.8717C54.8717 47.9319 55.2268 49.2678 55.937 50.2148C56.6811 51.1618 57.7972 51.6353 59.2853 51.6353C60.4691 51.6353 61.6021 51.3816 62.6843 50.8743C63.7666 50.3332 64.5107 49.6737 64.9165 48.8958L64.2063 47.6782C63.9019 48.1855 63.5299 48.5068 63.0902 48.6421C62.6505 48.7436 62.1939 48.7943 61.7204 48.7943C60.1985 48.7943 59.4375 46.8665 59.4375 43.0109V31.647C59.4375 28.7722 58.7273 26.7429 57.3068 25.5592C55.8863 24.3416 53.485 23.7329 50.1029 23.7329C46.9237 23.7329 44.4717 24.1894 42.7468 25.1026C41.0219 25.982 40.1595 27.2333 40.1595 28.8568C40.1595 30.5478 41.005 31.3933 42.696 31.3933C43.3725 31.3933 43.8798 31.2411 44.218 30.9368C44.59 30.5985 44.9621 29.939 45.3341 28.9582C45.537 28.3156 45.7399 27.7745 45.9429 27.3348C46.1796 26.8951 46.4333 26.5569 46.7038 26.3202C46.9744 26.0834 47.3126 25.9143 47.7185 25.8129C48.1243 25.7114 48.6147 25.6607 49.1897 25.6607C52.7071 25.6607 54.4658 27.7237 54.4658 31.8499ZM49.5448 38.2929C50.8977 37.5826 52.538 36.8555 54.4658 36.1114V40.1192C54.4658 41.2691 54.2967 42.3683 53.9585 43.4168C53.6203 44.4314 53.1637 45.3276 52.5887 46.1055C52.0138 46.8496 51.3373 47.4415 50.5595 47.8811C49.8154 48.3208 49.0037 48.5407 48.1243 48.5407C46.9068 48.5407 45.926 48.1855 45.1819 47.4753C44.4378 46.765 44.0658 45.8519 44.0658 44.7358C44.0658 43.9917 44.2349 43.2646 44.5731 42.5543C44.9451 41.8441 45.537 41.1338 46.3487 40.4236C47.1604 39.7133 48.2258 39.0031 49.5448 38.2929Z" fill="white"/>
<path d="M76.215 46.3592C76.1474 45.5475 76.1136 44.4483 76.1136 43.0616V41.3368C76.1136 39.9839 76.1812 38.6987 76.3165 37.4811C76.4856 36.2298 76.7054 35.1137 76.976 34.1328C77.4833 32.3403 78.1936 30.8691 79.1067 29.7192C80.0199 28.5355 80.9331 27.9436 81.8463 27.9436C82.1506 27.9436 82.4212 28.0112 82.658 28.1465C82.9285 28.2818 83.1991 28.434 83.4697 28.6031C83.7741 28.7384 84.1123 28.8737 84.4843 29.0089C84.8563 29.1442 85.3129 29.2119 85.8541 29.2119C86.8011 29.2119 87.5282 28.992 88.0355 28.5524C88.5428 28.0789 88.7965 27.4363 88.7965 26.6246C88.7965 25.7452 88.4752 25.0519 87.8326 24.5446C87.2238 24.0034 86.3783 23.7329 85.296 23.7329C84.4167 23.7329 83.5542 23.902 82.7087 24.2402C81.8632 24.5784 81.0515 25.0519 80.2736 25.6607C79.4957 26.2356 78.7685 26.9459 78.0921 27.7914C77.4495 28.6369 76.9084 29.567 76.4687 30.5816H76.2658L75.5555 24.2909L66.6775 26.2187V27.9943C67.7598 27.9943 68.6053 28.062 69.2141 28.1972C69.8228 28.2987 70.2625 28.6538 70.5331 29.2626C70.8375 29.8714 71.0066 30.8184 71.0404 32.1036C71.108 33.3888 71.1419 35.1813 71.1419 37.4811V43.4168C71.1419 44.702 71.0911 45.7335 70.9897 46.5114C70.922 47.2555 70.736 47.8304 70.4316 48.2363C70.1272 48.6421 69.6876 48.9296 69.1126 49.0987C68.5376 49.234 67.7597 49.3185 66.7789 49.3524V51.128H80.2736V49.3524C79.2928 49.2847 78.5318 49.1833 77.9906 49.048C77.4495 48.9127 77.0267 48.6421 76.7224 48.2363C76.4518 47.7966 76.2827 47.1709 76.215 46.3592Z" fill="white"/>
<path d="M100.341 46.3592C100.273 45.5475 100.24 44.4314 100.24 43.0109V34.5387C100.273 33.9976 100.324 33.541 100.392 33.1689C100.46 32.7631 100.544 32.408 100.646 32.1036C100.781 31.7654 100.933 31.4272 101.102 31.0889C101.779 29.7023 102.776 28.6031 104.095 27.7914C105.448 26.9459 106.886 26.5231 108.407 26.5231C109.49 26.5231 110.403 26.7091 111.147 27.0811C111.891 27.4194 112.483 28.0112 112.923 28.8568C113.396 29.6685 113.734 30.7507 113.937 32.1036C114.14 33.4226 114.242 35.0629 114.242 37.0246V43.4168C114.242 44.702 114.191 45.7335 114.089 46.5114C114.022 47.2555 113.836 47.8304 113.531 48.2363C113.261 48.6421 112.838 48.9127 112.263 49.048C111.688 49.1833 110.927 49.2847 109.98 49.3524V51.128H123.475V49.3524C122.494 49.2847 121.716 49.1833 121.141 49.048C120.566 48.9127 120.127 48.6252 119.822 48.1855C119.552 47.7459 119.382 47.1202 119.315 46.3085C119.247 45.4968 119.213 44.3976 119.213 43.0109V34.5387C119.247 33.9976 119.298 33.541 119.366 33.1689C119.433 32.7631 119.518 32.408 119.619 32.1036C119.754 31.7654 119.907 31.4272 120.076 31.0889C120.82 29.7023 121.834 28.6031 123.12 27.7914C124.439 26.9459 125.842 26.5231 127.33 26.5231C128.413 26.5231 129.326 26.7091 130.07 27.0811C130.848 27.4532 131.473 28.062 131.947 28.9075C132.42 29.7192 132.759 30.8015 132.962 32.1543C133.165 33.4733 133.266 35.0968 133.266 37.0246V43.4168C133.266 44.702 133.215 45.7166 133.114 46.4607C133.046 47.2047 132.86 47.7966 132.556 48.2363C132.251 48.6421 131.812 48.9296 131.237 49.0987C130.662 49.234 129.901 49.3185 128.954 49.3524V51.128H142.448V49.3524C141.468 49.2847 140.69 49.1833 140.115 49.048C139.574 48.9127 139.168 48.6252 138.897 48.1855C138.627 47.7459 138.441 47.1202 138.339 46.3085C138.272 45.4968 138.238 44.3976 138.238 43.0109V34.9446C138.238 32.7462 138.102 31.0213 137.832 29.7699C137.595 28.4847 137.172 27.4532 136.564 26.6753C135.887 25.7621 134.889 25.0519 133.57 24.5446C132.285 24.0034 130.848 23.7329 129.258 23.7329C127.229 23.7329 125.318 24.1725 123.526 25.0519C121.733 25.9312 120.211 27.1657 118.96 28.7553H118.757C118.182 27.1319 117.167 25.8974 115.713 25.0519C114.259 24.1725 112.466 23.7329 110.335 23.7329C108.306 23.7329 106.446 24.1556 104.755 25.0011C103.098 25.8129 101.508 27.0811 99.986 28.806H99.7324L99.0728 23.7329L90.8036 25.6607V27.4363C91.5815 27.4363 92.2072 27.4701 92.6806 27.5377C93.188 27.5715 93.5938 27.673 93.8982 27.8421C94.2026 27.9774 94.4224 28.1803 94.5577 28.4509C94.693 28.6876 94.8114 29.0259 94.9128 29.4655C95.0481 29.939 95.1327 30.8184 95.1665 32.1036C95.2341 33.3888 95.268 34.9953 95.268 36.9231V43.4168C95.268 44.702 95.2172 45.7335 95.1158 46.5114C95.0481 47.2555 94.8621 47.8304 94.5577 48.2363C94.2533 48.6421 93.8137 48.9127 93.2387 49.048C92.6637 49.1833 91.8859 49.2847 90.905 49.3524V51.128H104.4V49.3524C103.419 49.2847 102.658 49.1833 102.117 49.048C101.576 48.9127 101.153 48.6421 100.848 48.2363C100.578 47.7966 100.409 47.1709 100.341 46.3592Z" fill="white"/>
<path fill-rule="evenodd" clip-rule="evenodd" d="M153.703 53.2433C155.198 52.9273 157.289 51.1816 159.976 48.0061C163.333 50.7855 168.025 51.3848 174.051 49.804C177.585 48.8651 180.827 47.5279 183.776 45.7924C186.733 44.0937 189.263 41.9868 191.365 39.4719C193.496 36.9126 195.053 33.976 196.038 30.6622C197.03 27.3851 197.239 24.3693 196.665 21.6149C196.168 19.2278 195.122 17.1292 193.527 15.3192C191.932 13.5093 190.02 12.0923 187.79 11.0685C185.559 10.0447 183.206 9.52615 180.73 9.51292C179.32 9.50427 177.907 9.57292 176.491 9.71886C175.076 9.86481 173.675 10.0842 172.29 10.3771C166.13 11.6795 161.061 14.1122 157.084 17.6753C155.1 19.4752 153.674 21.3103 152.808 23.1805C151.97 25.0063 151.751 26.8741 152.148 28.7838C152.362 29.8121 152.922 30.6715 153.827 31.362C154.732 32.0526 155.714 32.3818 156.773 32.3496L157.101 32.2803C156.903 32.2453 156.532 32.017 155.988 31.5954C155.303 31.0499 154.865 30.3181 154.674 29.4C153.963 25.9846 155.817 22.3718 160.237 18.5616C164.433 14.9522 169.337 12.5542 174.951 11.3674C177.138 10.905 179.28 10.6822 181.376 10.699C183.166 10.7041 184.883 11.1845 186.529 12.1403C188.21 13.0884 189.654 14.3552 190.859 15.9408C192.057 17.4896 192.859 19.2372 193.264 21.1837C193.861 24.0482 193.632 27.2408 192.576 30.7613C191.613 33.994 190.121 36.8785 188.099 39.4147C186.107 41.9065 183.701 43.968 180.882 45.5992C178.107 47.2594 175.061 48.4402 171.744 49.1415C169.739 49.5654 167.848 49.6202 166.07 49.3059C164.292 48.9917 162.64 48.0948 161.114 46.6153L161.385 46.2705C164.604 42.1774 167.594 36.9825 170.355 30.6858C170.827 29.6657 171.466 28.438 172.271 27.0025C173.068 25.5304 173.937 24.0428 174.88 22.5399C175.852 20.9925 176.781 19.6074 177.668 18.3846C178.592 17.1541 179.394 16.256 180.075 15.6902C181.11 15.3565 181.562 14.8775 181.432 14.2532C181.347 13.8492 181.038 13.5504 180.503 13.3568C179.997 13.1187 179.379 13.0768 178.65 13.2309C177.994 13.3696 177.364 13.6369 176.762 14.0327C174.983 15.1756 171.955 20.2826 167.68 29.3535C165.961 32.976 164.419 36.0817 163.056 38.6706C161.728 41.2517 160.597 43.3121 159.662 44.8518C158.892 43.711 157.852 41.5535 156.544 38.3793C155.721 36.2528 154.963 35.2628 154.27 35.4093C152.922 35.6944 151.835 37.8795 151.012 41.9646C150.352 45.555 150.205 48.2316 150.572 49.9944C150.763 50.9125 151.122 51.7186 151.647 52.4128C152.216 53.136 152.901 53.4128 153.703 53.2433ZM158.55 46.6397C156.786 49.3133 155.192 51.1647 153.77 52.1939C153.157 51.4417 152.732 50.4964 152.495 49.3579C151.929 46.6402 152.524 43.1976 154.282 39.0301C154.736 40.6596 155.156 41.8552 155.543 42.6169C156.124 43.7595 157.126 45.1004 158.55 46.6397Z" fill="white"/>
<path fill-rule="evenodd" clip-rule="evenodd" d="M195.656 47.0431C196.754 48.4515 198.235 49.1557 200.099 49.1557C203.327 49.1557 206.04 47.3617 208.237 43.7736C210.267 40.4203 211.282 37.9054 211.282 36.2287C211.282 35.9604 211.182 35.8263 210.983 35.8263C210.816 35.8263 210.65 35.9604 210.483 36.2287C210.35 36.497 210.15 36.9329 209.884 37.5365C208.886 39.8838 207.688 41.9796 206.29 43.8239C205.624 44.6958 204.892 45.3664 204.093 45.8359C203.294 46.3054 202.396 46.5401 201.397 46.5401C200.399 46.5401 199.517 46.0706 198.751 45.1317C198.019 44.1593 197.586 43.0191 197.453 41.7114C199.883 41.6443 201.93 40.9401 203.594 39.5988C205.291 38.2239 206.14 36.5305 206.14 34.5185C206.14 33.4455 205.774 32.6071 205.042 32.0036C204.309 31.3664 203.377 31.0479 202.246 31.0479C199.816 31.0479 197.836 31.9868 196.305 33.8646C194.774 35.7425 194.008 38.5089 194.008 42.164C194.008 43.9748 194.557 45.6012 195.656 47.0431ZM201.747 38.5928C200.848 39.5317 199.417 40.1688 197.453 40.5042C197.52 38.5257 197.952 36.7317 198.751 35.1221C199.55 33.479 200.532 32.6574 201.697 32.6574C202.662 32.6574 203.144 33.4119 203.144 34.9209C203.144 36.4299 202.678 37.6539 201.747 38.5928Z" fill="white"/>
<path fill-rule="evenodd" clip-rule="evenodd" d="M212.728 48.9042C213.361 49.0718 214.043 49.1557 214.775 49.1557C216.572 49.1557 218.786 46.3389 221.415 40.7054C222.135 39.18 222.586 37.9623 222.769 37.0523C222.732 37.5376 222.693 38.0678 222.653 38.6431C222.454 41.9964 222.354 44.394 222.354 45.8359C222.354 47.2778 222.47 48.1161 222.703 48.3509C223.369 48.8874 224.351 49.1557 225.649 49.1557C227.446 49.1557 229.659 46.3389 232.289 40.7054C233.254 38.6598 233.737 37.1676 233.737 36.2287C233.737 35.9604 233.62 35.8263 233.387 35.8263C233.187 35.8263 232.588 36.9161 231.59 39.0958C230.625 41.2754 229.643 43.0694 228.644 44.4778C227.646 45.8527 226.864 46.5569 226.298 46.5904C226.098 46.5904 225.998 46.1377 225.998 45.2323C225.998 40.5377 226.215 37.6371 226.647 36.5305C226.88 36.0946 227.08 35.3904 227.246 34.4179C227.446 33.4455 227.546 32.7916 227.546 32.4562C227.546 31.182 227.296 30.5449 226.797 30.5449C226.331 30.5449 225.666 30.9137 224.8 31.6515C223.935 32.3892 223.419 32.8922 223.253 33.1604C223.135 33.3506 223 34.3244 222.848 36.0817C222.811 35.9115 222.699 35.8263 222.513 35.8263C222.314 35.8263 221.715 36.9161 220.716 39.0958C219.751 41.2754 218.769 43.0694 217.771 44.4778C216.772 45.8527 215.99 46.5569 215.424 46.5904C215.058 46.5904 214.875 45.5676 214.875 43.5221C214.875 41.4431 214.925 39.0119 215.025 36.2287C217.654 30.8299 218.969 25.9509 218.969 21.5916C218.969 20.988 218.836 20.3676 218.569 19.7305C218.303 19.0598 217.871 18.7245 217.271 18.7245C214.709 18.7245 213.078 21.3904 212.379 26.7221C211.547 33.194 211.131 38.3245 211.131 42.1137C211.131 45.8694 211.297 47.9485 211.63 48.3509C211.763 48.5185 212.129 48.703 212.728 48.9042ZM217.321 20.4347C217.588 20.4347 217.721 20.9712 217.721 22.0443C217.721 24.7269 216.855 28.3652 215.125 32.9592C215.591 24.6095 216.323 20.4347 217.321 20.4347Z" fill="white"/>
<path d="M225.15 22.7485C224.517 23.1844 224.201 23.7041 224.201 24.3077C224.201 26.4203 224.517 27.4766 225.15 27.4766C226.115 27.4766 226.864 27.1077 227.396 26.37C227.929 25.5988 228.195 24.6934 228.195 23.6538C228.195 22.6143 227.746 22.0946 226.847 22.0946C226.348 22.0946 225.782 22.3125 225.15 22.7485Z" fill="white"/>
<path fill-rule="evenodd" clip-rule="evenodd" d="M242.114 47.2443C243.013 45.97 243.978 43.9581 245.01 41.2084L244.71 46.9928C241.315 50.6814 238.969 53.4144 237.671 55.1916C236.406 56.9689 235.774 58.6958 235.774 60.3725C235.774 62.0826 236.256 63.2731 237.222 63.9437C238.22 64.6479 239.285 65 240.417 65C243.013 65 244.81 64.1282 245.809 62.3844C246.84 60.6743 247.439 57.6898 247.606 53.4311C247.672 51.9892 247.805 49.273 248.005 45.2826C251.134 41.3257 253.231 38.5593 254.296 36.9832C254.429 36.7485 254.495 36.5305 254.495 36.3293C254.495 35.994 254.329 35.8263 253.996 35.8263C253.83 35.8263 253.63 35.9437 253.397 36.1784C253.197 36.4131 251.467 38.6096 248.205 42.7676C248.238 40.8563 248.421 38.7772 248.754 36.5305C249.353 35.4239 249.653 34.1497 249.653 32.7077C249.653 31.2658 249.403 30.5449 248.904 30.5449C248.438 30.5449 247.772 30.9137 246.907 31.6515C246.041 32.3556 245.559 32.8754 245.459 33.2107C244.927 32.6071 244.311 32.1042 243.612 31.7018C242.913 31.2658 242.314 31.0479 241.815 31.0479C239.352 31.0479 237.355 32.0874 235.824 34.1664C234.326 36.2455 233.577 38.6431 233.577 41.3592C233.577 44.0754 234.06 46.0539 235.025 47.2946C236.023 48.5353 237.238 49.1557 238.669 49.1557C240.101 49.1557 241.249 48.5185 242.114 47.2443ZM238.52 35.0718C239.585 33.5964 240.583 32.8586 241.515 32.8586C242.114 32.8586 242.83 33.1269 243.662 33.6634C244.494 34.1664 245.043 34.6694 245.309 35.1724C245.309 35.4742 245.276 36.1952 245.209 37.3353C244.011 40.6886 243.029 43.0527 242.264 44.4275C241.498 45.8024 240.7 46.4898 239.868 46.4898C239.035 46.4898 238.337 45.903 237.771 44.7293C237.238 43.5221 236.972 41.9796 236.972 40.1018C236.972 38.1904 237.488 36.5137 238.52 35.0718ZM238.869 59.2659C238.869 56.7844 240.766 53.4814 244.56 49.3569L244.311 54.2862C244.111 57.8742 243.795 60.2551 243.362 61.4287C242.93 62.6024 242.181 63.1892 241.116 63.1892C240.417 63.1892 239.868 62.8204 239.468 62.0826C239.069 61.3449 238.869 60.406 238.869 59.2659Z" fill="white"/>
<path fill-rule="evenodd" clip-rule="evenodd" d="M258.842 47.7473L258.792 46.188C258.792 45.1485 258.892 44.0419 259.092 42.8682C259.192 42.2311 260.057 40.7724 261.688 38.4922C263.319 36.1784 264.317 35.0215 264.683 35.0215C265.083 35.0215 265.282 35.5748 265.282 36.6814C265.282 37.788 265.183 39.4646 264.983 41.7114C264.816 43.9245 264.733 45.5341 264.733 46.5401C264.733 47.5126 264.85 48.1161 265.083 48.3509C265.748 48.8874 266.73 49.1557 268.028 49.1557C269.826 49.1557 272.039 46.3389 274.668 40.7054C275.633 38.6598 276.116 37.1676 276.116 36.2287C276.116 35.9604 275.999 35.8263 275.767 35.8263C275.567 35.8263 274.968 36.9161 273.969 39.0958C273.004 41.2754 272.022 43.0694 271.024 44.4778C270.025 45.8527 269.243 46.5569 268.677 46.5904C268.478 46.5904 268.378 46.2215 268.378 45.4838C268.378 44.7125 268.528 42.9018 268.827 40.0515C269.16 37.1676 269.326 34.988 269.326 33.5125C269.326 32.8083 269.043 32.2215 268.478 31.7521C267.945 31.2826 267.329 31.0479 266.63 31.0479C265.931 31.0479 265.133 31.5341 264.234 32.5065C263.369 33.479 262.304 35.0048 261.039 37.0838C259.774 39.1628 259.075 40.303 258.942 40.5042C258.942 38.7269 258.959 37.4191 258.992 36.5808C259.99 35.2395 260.972 33.3113 261.938 30.7964C262.903 28.2814 263.385 25.582 263.385 22.6982C263.385 21.5245 263.219 20.5688 262.886 19.8311C262.553 19.0934 262.22 18.7245 261.888 18.7245C261.155 18.7245 260.44 18.9928 259.741 19.5293C256.712 21.8766 255.198 27.3425 255.198 35.9269V38.8443C255.198 39.9844 255.098 41.6946 254.898 43.9748C254.732 46.2215 254.649 47.5461 254.649 47.9485C254.649 48.3173 255.015 48.6191 255.747 48.8539C256.479 49.0551 257.245 49.1557 258.043 49.1557C258.576 49.1557 258.842 48.6862 258.842 47.7473ZM261.488 21.6922C261.854 21.6922 262.037 22.3964 262.037 23.8047C262.037 26.588 261.056 30.0419 259.092 34.1664C259.225 31.5509 259.441 29.2539 259.741 27.2754C260.307 23.5532 260.889 21.6922 261.488 21.6922Z" fill="white"/>
<path d="M286.854 40.7054C287.82 38.6598 288.302 37.1676 288.302 36.2287C288.302 35.9604 288.186 35.8263 287.953 35.8263C287.753 35.8263 287.154 36.9329 286.155 39.1461C285.19 41.3257 284.208 43.103 283.21 44.4778C282.211 45.8527 281.413 46.5569 280.814 46.5904C280.414 46.5904 280.214 45.9197 280.214 44.5784C280.214 42.0634 280.414 38.3581 280.814 33.4622C282.278 33.1604 283.643 32.7245 284.907 32.1545C286.172 31.5509 286.788 31.0814 286.755 30.7461C286.755 30.3772 286.455 30.1928 285.856 30.1928C285.656 30.1928 285.007 30.4443 283.909 30.9473C282.844 31.4503 281.862 31.7856 280.963 31.9533C281.429 26.7221 281.662 23.788 281.662 23.1509C281.662 21.776 281.446 21.0886 281.013 21.0886C280.514 21.0886 279.998 21.3736 279.466 21.9437C278.933 22.5137 278.617 23.1173 278.517 23.7544C278.118 26.2359 277.768 28.6838 277.469 31.0982C276.936 30.8299 276.32 30.6958 275.621 30.6958C274.922 30.6958 274.573 30.964 274.573 31.5006C274.673 32.5401 275.555 33.2275 277.219 33.5628C276.753 38.1904 276.52 41.7281 276.52 44.176C276.52 46.6239 276.67 48.0658 276.969 48.5018C277.302 48.9377 278.367 49.1557 280.165 49.1557C281.995 49.1557 284.225 46.3389 286.854 40.7054Z" fill="white"/>
</svg>
